HD DESI ROCKERS GROUP RELEASES


INFO:

Title..................: Mission Impossible 3
Year...................: 2006
Genre..................: Action | Thriller
Directer...............: J.J. Abrams
Run time...............: 2h 00mn 16sec
size ..................: 998 MB
Languages..............: English.Hindi

___________________________________________________________________________

Video

Format                           : MKV
Duration                         : 2h 00mn 16sec
Display aspect ratio             : 16:9
Resolution                       : 648*276
Stream size                      : 728 MiB 
_______________________________________________________________________________


Audio #1 :English
ID                               : 1
Format                           : AC-3
Duration                         : 2h 00mn 16sec
Bit rate mode                    : Constant
Bit rate                         : 192 Kbps
Channel(s)                       : 6 channels
Channel positions                : Front: L C R, Side: L R, LFE
Sampling rate                    : 48.0 KHz
Stream size                      : 165 MiB 

____________________________________________________________________________


Audio #2 :Hindi
ID                               : 2
Format                           : MPEG 4 Layer 0 
Duration                         : 2h 00mn 16sec
Bit rate mode                    : Constant
Bit rate                         : 128 Kbps
Channel(s)                       : 2 channels
Channel positions                : Front: L R
Sampling rate                    : 48 Hz
Stream size                      : 105 MiB
__________________________________________________________________________



Seeding at 2:00 AM ISt - 8:00 AM ISt
Please wait during seeding
Plz seed after download
Thankyou...

Screens
 
http://img237.imageshack.us/img237/8739/35482566.jpg 
http://img26.imageshack.us/img26/441/31520958.jpg 
http://img169.imageshack.us/img169/9867/89040856.jpg 
http://img38.imageshack.us/img38/30/99597587.jpg 
http://img708.imageshack.us/img708/4034/48197740.jpg
